<svg xmlns="http://www.w3.org/2000/svg" width="819.609" height="414.12"><style>.st0{opacity:.67;fill:#318dde}.st1{fill:#fff}.st2,.st3,.st4{opacity:.67;fill:#00a9d7}.st3,.st4{fill:#1cd0bb}.st4{fill:#80bc00}.st5{fill:#333}</style><g id="Layer_2"><path d="M37.602 287.71h-.036c-3.475 0-6.518-2.611-6.518-6.446s3.007-6.409 6.482-6.409h.036c3.475 0 6.518 2.61 6.518 6.445s-3.007 6.41-6.482 6.41zm0-11.38h-.036c-2.863 0-5.204 2.089-5.204 4.97s2.305 4.934 5.167 4.934h.036c2.863 0 5.204-2.089 5.204-4.97s-2.304-4.934-5.167-4.934zM31.264 271.077v-5.365c0-1.439.415-2.574 1.117-3.295a2.804 2.804 0 0 1 2.017-.811h.036c1.639 0 2.485 1.009 2.917 1.999.45-1.494 1.314-2.7 3.043-2.7h.036c2.161 0 3.439 1.818 3.439 4.572v5.6H31.264zm3.331-8.029c-1.242 0-2.052.99-2.052 2.791v3.834h4.339v-3.727c0-1.711-.774-2.898-2.251-2.898h-.036zm3.548 2.646v3.979h4.447v-4.23c0-1.908-.846-3.098-2.25-3.098h-.036c-1.369-.001-2.161 1.152-2.161 3.349zM42.032 258.136l-1.044-.882c1.188-1.314 1.783-2.575 1.783-4.322 0-1.692-.9-2.809-2.143-2.809h-.036c-1.17 0-1.837.631-2.395 3.277-.63 2.898-1.566 4.23-3.637 4.23h-.036c-1.98 0-3.439-1.746-3.439-4.141 0-1.836.522-3.15 1.548-4.43l1.098.828c-.954 1.171-1.368 2.342-1.368 3.638 0 1.638.9 2.683 2.035 2.683h.036c1.188 0 1.855-.648 2.449-3.421.612-2.81 1.638-4.105 3.565-4.105h.036c2.161 0 3.565 1.801 3.565 4.304-.001 1.999-.667 3.638-2.017 5.15zM31.264 245.014v-9.111h1.297v7.688h4.303v-6.878h1.296v6.878h4.411v-7.778h1.296v9.201H31.264zM31.264 232.179v-5.419c0-1.549.468-2.791 1.261-3.584.612-.611 1.494-.972 2.484-.972h.036c2.089 0 3.313 1.44 3.673 3.421l5.149-3.871v1.746l-4.897 3.655v3.601h4.897v1.423H31.264zm6.428-5.294c0-1.891-.972-3.24-2.593-3.24h-.036c-1.548 0-2.485 1.188-2.485 3.223v3.889h5.114v-3.872zM31.264 219.833v-1.585l10.857-4.483-10.857-4.502v-1.529l12.694 5.419v1.261l-12.694 5.419zM31.174 201.614v-1.332l12.694-5.744v1.531l-3.331 1.477v6.859l3.331 1.494v1.459l-12.694-5.744zm8.067-3.511l-6.41 2.862 6.41 2.881v-5.743zM32.579 189.573v4.231h-1.314v-9.903h1.314v4.231h11.29v1.44h-11.29zM31.264 180.341v-1.423h12.604v1.423H31.264zM37.602 175.012h-.036c-3.475 0-6.518-2.61-6.518-6.445 0-3.836 3.007-6.41 6.482-6.41h.036c3.475 0 6.518 2.611 6.518 6.445 0 3.836-3.007 6.41-6.482 6.41zm0-11.378h-.036c-2.863 0-5.204 2.088-5.204 4.969s2.305 4.934 5.167 4.934h.036c2.863 0 5.204-2.088 5.204-4.969s-2.304-4.934-5.167-4.934zM31.264 158.38v-1.332l10.101-7.94H31.264v-1.387h12.604v1.134l-10.335 8.139h10.335v1.386H31.264zM42.032 144.215l-1.044-.882c1.188-1.314 1.783-2.575 1.783-4.321 0-1.692-.9-2.809-2.143-2.809h-.036c-1.17 0-1.837.63-2.395 3.277-.63 2.899-1.566 4.231-3.637 4.231h-.036c-1.98 0-3.439-1.747-3.439-4.141 0-1.836.522-3.151 1.548-4.429l1.098.828c-.954 1.17-1.368 2.341-1.368 3.637 0 1.638.9 2.683 2.035 2.683h.036c1.188 0 1.855-.648 2.449-3.421.612-2.809 1.638-4.105 3.565-4.105h.036c2.161 0 3.565 1.801 3.565 4.303-.001 1.998-.667 3.636-2.017 5.149zM281.052 373.607h1.422v12.604h-1.422v-12.604zM286.938 373.607h1.332l7.94 10.101v-10.101h1.387v12.604h-1.134l-8.139-10.335v10.335h-1.386v-12.604zM301.932 373.607h4.375c3.962 0 6.698 2.719 6.698 6.266v.036c0 3.547-2.736 6.302-6.698 6.302h-4.375v-12.604zm1.422 1.315v9.975h2.953c3.188 0 5.222-2.16 5.222-4.951v-.036c0-2.791-2.034-4.987-5.222-4.987h-2.953zM316.782 373.607h9.11v1.297h-7.688v4.303h6.878v1.297h-6.878v4.411h7.778v1.296h-9.2v-12.604zM329.616 373.607h4.718c2.845 0 4.717 1.513 4.717 3.997v.036c0 2.719-2.269 4.123-4.951 4.123h-3.061v4.447h-1.423v-12.603zm4.537 6.861c2.089 0 3.457-1.116 3.457-2.773v-.036c0-1.8-1.351-2.736-3.385-2.736h-3.187v5.546h3.115zM342.414 373.607h9.11v1.297h-7.688v4.303h6.878v1.297h-6.878v4.411h7.778v1.296h-9.201v-12.604zM355.248 373.607h1.332l7.94 10.101v-10.101h1.387v12.604h-1.135l-8.138-10.335v10.335h-1.387v-12.604zM370.242 373.607h4.375c3.961 0 6.698 2.719 6.698 6.266v.036c0 3.547-2.737 6.302-6.698 6.302h-4.375v-12.604zm1.422 1.315v9.975h2.953c3.187 0 5.222-2.16 5.222-4.951v-.036c0-2.791-2.035-4.987-5.222-4.987h-2.953zM385.092 373.607h9.11v1.297h-7.688v4.303h6.878v1.297h-6.878v4.411h7.778v1.296h-9.201v-12.604zM397.926 373.607h1.332l7.94 10.101v-10.101h1.387v12.604h-1.135l-8.138-10.335v10.335h-1.387v-12.604zM416.251 374.922h-4.231v-1.314h9.903v1.314h-4.231v11.289h-1.44v-11.289zM430.451 373.607h1.585l4.483 10.857 4.501-10.857h1.53l-5.419 12.693h-1.261l-5.419-12.693zM448.669 373.517h1.333l5.743 12.693h-1.53l-1.477-3.331h-6.859l-1.495 3.331h-1.458l5.743-12.693zm3.512 8.067l-2.863-6.41-2.881 6.41h5.744zM459 373.607h5.419c1.549 0 2.791.468 3.583 1.261.612.612.973 1.494.973 2.484v.036c0 2.089-1.44 3.312-3.421 3.673l3.871 5.149h-1.747l-3.654-4.897h-3.602v4.897H459v-12.603zm5.293 6.428c1.891 0 3.241-.972 3.241-2.593v-.036c0-1.548-1.188-2.484-3.223-2.484h-3.89v5.113h3.872zM472.913 373.607h1.423v12.604h-1.423v-12.604zM483.462 373.517h1.333l5.743 12.693h-1.53l-1.477-3.331h-6.859l-1.495 3.331h-1.458l5.743-12.693zm3.512 8.067l-2.863-6.41-2.881 6.41h5.744zM493.793 373.607h5.365c1.44 0 2.575.414 3.295 1.116a2.8 2.8 0 0 1 .811 2.017v.036c0 1.639-1.008 2.484-1.998 2.917 1.494.45 2.7 1.314 2.7 3.043v.036c0 2.16-1.818 3.438-4.573 3.438h-5.6v-12.603zm8.03 3.331c0-1.242-.99-2.053-2.791-2.053h-3.835v4.34h3.728c1.71 0 2.898-.774 2.898-2.251v-.036zm-2.646 3.547h-3.979v4.447h4.231c1.908 0 3.097-.846 3.097-2.25v-.036c-.001-1.369-1.153-2.161-3.349-2.161zM507.562 373.607h1.423v11.289h7.094v1.314h-8.517v-12.603zM519.479 373.607h9.11v1.297H520.9v4.303h6.878v1.297H520.9v4.411h7.778v1.296h-9.2v-12.604z"/><circle class="st0" cx="207.956" cy="62.828" r="16.68"/><g><path class="st1" d="M206.264 53.812h3.387l7.155 16.814h-3.84l-1.526-3.744h-7.059l-1.526 3.744h-3.745l7.154-16.814zm3.863 9.826l-2.218-5.414-2.218 5.414h4.436z"/></g><circle class="st2" cx="394.276" cy="62.828" r="16.68"/><g><path class="st1" d="M388.418 54.382h7.751c1.908 0 3.411.525 4.364 1.479.764.763 1.146 1.693 1.146 2.838v.048c0 1.884-1.002 2.934-2.194 3.601 1.932.739 3.124 1.86 3.124 4.102v.048c0 3.053-2.48 4.579-6.248 4.579h-7.942V54.382zm9.611 4.937c0-1.097-.858-1.717-2.408-1.717h-3.626v3.53h3.387c1.622 0 2.647-.524 2.647-1.765v-.048zm-1.788 4.865h-4.246v3.673h4.365c1.621 0 2.6-.572 2.6-1.812v-.048c0-1.121-.835-1.813-2.719-1.813z"/></g><circle class="st3" cx="511.88" cy="62.828" r="16.68"/><g><path class="st1" d="M503.863 63.326v-.047c0-4.746 3.577-8.634 8.705-8.634 3.148 0 5.032 1.049 6.583 2.576l-2.338 2.695c-1.288-1.169-2.6-1.884-4.269-1.884-2.814 0-4.842 2.337-4.842 5.199v.048c0 2.862 1.979 5.247 4.842 5.247 1.907 0 3.076-.763 4.388-1.956l2.338 2.361c-1.718 1.836-3.625 2.981-6.845 2.981-4.912 0-8.562-3.792-8.562-8.586z"/></g><circle class="st4" cx="583.16" cy="62.828" r="16.68"/><g><path class="st1" d="M577.01 54.382h6.511c5.247 0 8.872 3.602 8.872 8.3v.048c0 4.698-3.625 8.347-8.872 8.347h-6.511V54.382zm3.673 3.315v10.064h2.838c3.006 0 5.032-2.027 5.032-4.985v-.046c0-2.958-2.026-5.032-5.032-5.032h-2.838z"/></g><path class="st0" d="M346.165 347.531h-7.423c-42.843 0-55.593-13.028-67.967-42.23-10.331-24.381-20.282-61.17-28.777-106.39-3.225-17.167-9.191-43.153-16.263-64.598-11.104-33.676-17.512-34.063-17.779-34.063s-6.674.387-17.779 34.063c-7.072 21.446-13.038 47.431-16.263 64.598-8.495 45.222-18.446 82.01-28.777 106.39-12.374 29.202-25.124 42.23-67.968 42.23h-7.422v-7.311h7.422c40.77 0 50.358-12.096 61.237-37.771 10.129-23.904 19.923-60.174 28.323-104.888 3.269-17.398 9.321-43.751 16.505-65.538 8.913-27.03 16.537-39.083 24.721-39.083s15.809 12.054 24.722 39.083c7.184 21.786 13.236 48.139 16.505 65.538 8.399 44.712 18.194 80.981 28.323 104.888 10.879 25.676 20.467 37.771 61.236 37.771h7.423v7.311z"/><path class="st2" d="M560.684 347.531h-8.896c-50.79 0-65.941-12.957-80.693-42.001-12.397-24.411-24.337-61.235-34.527-106.491-3.861-17.148-11.004-43.105-19.472-64.527-12.889-32.61-20.647-34.262-22.072-34.262s-9.183 1.652-22.071 34.262c-8.468 21.421-15.61 47.378-19.473 64.527-10.19 45.259-22.13 82.083-34.527 106.491-14.751 29.044-29.902 42.001-80.692 42.001h-8.896v-7.311h8.896c49.461 0 61.056-12.17 74.175-38.001 12.127-23.876 23.854-60.11 33.914-104.786 3.922-17.417 11.185-43.798 19.805-65.608 6.598-16.693 16.769-38.885 28.87-38.885s22.272 22.192 28.871 38.885c8.62 21.811 15.883 48.192 19.804 65.608 10.06 44.673 21.786 80.908 33.914 104.786 13.12 25.831 24.715 38.001 74.176 38.001h8.896v7.311z"/><path class="st3" d="M653.225 347.531h-7.616c-43.89 0-56.956-13.019-69.645-42.199-10.604-24.388-20.817-61.182-29.534-106.404-3.31-17.165-9.432-43.147-16.687-64.588-11.404-33.702-18.066-34.09-18.345-34.09s-6.939.388-18.344 34.09c-7.257 21.443-13.378 47.424-16.687 64.588-8.717 45.223-18.93 82.017-29.534 106.404-12.688 29.181-25.755 42.199-69.646 42.199h-7.616v-7.311h7.616c41.916 0 51.769-12.106 62.942-37.803 10.394-23.905 20.442-60.169 29.06-104.873 3.354-17.4 9.565-43.758 16.939-65.548 11.847-35.008 20.095-39.057 25.269-39.057s13.423 4.048 25.27 39.057c7.372 21.788 13.584 48.146 16.939 65.547 8.617 44.705 18.666 80.969 29.06 104.874 11.174 25.696 21.026 37.803 62.941 37.803h7.616v7.311z"/><path class="st4" d="M724.129 347.531h-7.616c-43.89 0-56.956-13.019-69.645-42.199-10.603-24.382-20.815-61.176-29.535-106.403-3.31-17.165-9.43-43.146-16.686-64.589-11.404-33.702-18.066-34.09-18.345-34.09s-6.939.388-18.344 34.09c-7.257 21.443-13.378 47.424-16.687 64.588-8.721 45.231-18.934 82.025-29.535 106.405-12.688 29.18-25.754 42.198-69.645 42.198h-7.616v-7.311h7.616c41.917 0 51.769-12.106 62.941-37.803 10.391-23.896 20.44-60.161 29.061-104.874 3.354-17.399 9.565-43.757 16.939-65.547 11.847-35.008 20.095-39.057 25.269-39.057s13.423 4.048 25.269 39.057c7.373 21.789 13.585 48.146 16.939 65.548 8.62 44.709 18.669 80.974 29.061 104.873 11.174 25.696 21.026 37.803 62.941 37.803h7.616v7.311z"/><g><path class="st5" d="M756.142 348.616H66.031V56.694h5v286.922h685.111z"/><path class="st5" d="M52.172 69.948l2.929 2.728 13.426-14.447 13.43 14.447 2.929-2.728-16.359-17.592zM742.888 362.476l-2.729-2.93 14.448-13.426-14.448-13.43 2.729-2.929 17.592 16.359z"/></g></g></svg>